Coordinates
version=1
nRows=16
nColumns=22
inDegrees=yes

Units are S.I. units (second, meters, Newtons, ...)
If the header above contains a line with 'inDegrees', this indicates whether rotational values are in degrees (yes) or radians (no).

endheader
time	pelvis_tilt	pelvis_list	pelvis_rotation	pelvis_tx	pelvis_ty	pelvis_tz	hip_flexion_r	hip_adduction_r	hip_rotation_r	knee_angle_r	ankle_angle_r	subtalar_angle_r	hip_flexion_l	hip_adduction_l	hip_rotation_l	knee_angle_l	ankle_angle_l	subtalar_angle_l	lumbar_extension	lumbar_bending	lumbar_rotation
      4.56000000	      2.34469467	     -3.07708066	      9.20536355	      0.84124146	      1.01205921	     -0.01018097	     14.97000276	      2.68388662	    -10.69104444	    -22.75262805	      2.54816738	     -2.14007666	      6.62445205	    -10.34007663	     -6.77603195	    -58.87543150	      7.11927987	      4.80728477	     -1.31167204	      0.71946409	     -5.77175959
      4.57000000	      2.34156035	     -2.92450695	      8.98218776	      0.84791312	      1.01328186	     -0.00913828	     14.44938861	      2.71829076	    -10.46030185	    -22.55847000	      2.80989095	     -2.13285027	      7.34674199	    -10.16526730	     -7.18855141	    -58.14333298	      7.70097539	      4.87488194	     -1.38679814	      0.49178931	     -5.27632907
      4.58000000	      2.33649784	     -2.78771325	      8.76161956	      0.85438999	      1.01443753	     -0.00816003	     13.93089089	      2.75829563	    -10.24968836	    -22.33814901	      3.04698525	     -2.15155242	      8.00766037	    -10.01653596	     -7.64381839	    -57.19320991	      8.25393655	      4.93328547	     -1.46236543	      0.28768534	     -4.80592645
      4.59000000	      2.32980978	     -2.66541936	      8.55032462	      0.86071199	      1.01553296	     -0.00726227	     13.41476828	      2.80049481	    -10.07129643	    -22.09935943	      3.26540996	     -2.18849557	      8.59562174	     -9.89183938	     -8.13822678	    -56.02361222	      8.78092279	      4.97353284	     -1.53164176	      0.10400656	     -4.37210552
      4.60000000	      2.32313015	     -2.55227202	      8.36074415	      0.86687494	      1.01657000	     -0.00644982	     12.89500171	      2.83977931	     -9.92199913	    -21.83620643	      3.46824522	     -2.23754214	      9.10996912	     -9.78007688	     -8.64622025	    -54.64730690	      9.29314283	      4.99495920	     -1.59905783	     -0.06908796	     -3.97453006
      4.61000000	      2.31726284	     -2.44546532	      8.19584241	      0.87287641	      1.01755355	     -0.00573974	     12.37037063	      2.87208456	     -9.80562454	    -21.54765239	      3.65537885	     -2.29495181	      9.54586974	     -9.66853777	     -9.14864934	    -53.07245911	      9.78389035	      5.00371086	     -1.66418841	     -0.23463599	     -3.61468961
      4.62000000	      2.31355013	     -2.33948410	      8.05255155	      0.87873608	      1.01848527	     -0.00513812	     11.84144107	      2.89214967	     -9.71486581	    -21.24291367	      3.82939581	     -2.36175046	      9.89288938	     -9.54606601	     -9.63909895	    -51.30544283	     10.25742893	      5.00842853	     -1.72447472	     -0.39580059	     -3.28713482
      4.63000000	      2.30128214	     -2.23940148	      7.92671869	      0.88443867	      1.01933291	     -0.00463576	     11.32798865	      2.90253878	     -9.65817778	    -20.93271347	      3.98904242	     -2.43600182	     10.16530922	     -9.40944152	    -10.09859455	    -49.36813095	     10.72157110	      5.01988701	     -1.76926459	     -0.55128599	     -2.99755692
      4.64000000	      2.29350104	     -2.14089324	      7.81714027	      0.88999561	      1.02011982	     -0.00424917	     10.81076390	      2.90497936	     -9.60363678	    -20.61025254	      4.12720586	     -2.52542042	     10.34472629	     -9.24101940	    -10.49127922	    -47.27284331	     11.16000186	      5.05862447	     -1.81031807	     -0.69914528	     -2.73365855
      4.65000000	      2.27370013	     -2.05414469	      7.70767192	      0.89540155	      1.02079203	     -0.00395238	     10.32645774	      2.90437521	     -9.57108442	    -20.30711044	      4.25167020	     -2.62152842	     10.45461917	     -9.05402092	    -10.82322246	    -45.05609616	     11.59536623	      5.13092953	     -1.82772353	     -0.83051628	     -2.49019427
      4.66000000	      2.25704015	     -1.98250381	      7.59889096	      0.90067349	      1.02137845	     -0.00374554	      9.85007394	      2.91095646	     -9.53706685	    -20.00644687	      4.35908907	     -2.72500440	     10.48284622	     -8.84824245	    -11.06159835	    -42.74418067	     12.00554130	      5.24857167	     -1.83614045	     -0.93834458	     -2.27057348
      4.67000000	      2.24687560	     -1.93767543	      7.49066123	      0.90582445	      1.02187423	     -0.00362237	      9.37639818	      2.94025034	     -9.48500447	    -19.70333989	      4.45939792	     -2.82772591	     10.43838991	     -8.64038214	    -11.18954505	    -40.38349518	     12.38462700	      5.41902240	     -1.83748376	     -1.00766748	     -2.09247503
      4.68000000	      2.22618055	     -1.91977727	      7.36267924	      0.91085015	      1.02223176	     -0.00357106	      8.95316349	      2.97964103	     -9.46363891	    -19.45332239	      4.57107172	     -2.89907899	     10.34846063	     -8.43970726	    -11.23075421	    -38.02442799	     12.76726257	      5.60360307	     -1.81186775	     -1.03888257	     -1.90476952
      4.69000000	      2.22033437	     -1.94042483	      7.23387229	      0.91576932	      1.02250810	     -0.00358287	      8.52397541	      3.05954808	     -9.40110628	    -19.19992386	      4.69979608	     -2.93995899	     10.20407220	     -8.26444153	    -11.14021753	    -35.71633187	     13.09243060	      5.84392424	     -1.78663463	     -1.01714677	     -1.76962148
      4.70000000	      2.20303814	     -1.98860893	      7.08812480	      0.92057210	      1.02263971	     -0.00366852	      8.15121758	      3.14912182	     -9.36586911	    -19.00978597	      4.85589855	     -2.93879628	     10.04326790	     -8.11393285	    -10.96080086	    -33.51635866	     13.39160943	      6.07627255	     -1.73476678	     -0.95504162	     -1.63042928
      4.71000000	      2.19155470	     -2.07081780	      6.93360666	      0.92525281	      1.02266826	     -0.00380253	      7.79900904	      3.26943982	     -9.30374787	    -18.84851885	      5.03947971	     -2.90093646	      9.86638130	     -8.00272781	    -10.66573040	    -31.47624987	     13.60903004	      6.32507825	     -1.67961752	     -0.84587326	     -1.52483051
